<svg xmlns="http://www.w3.org/2000/svg" viewBox="0 0 64 64">
  <defs>
    <linearGradient id="fav-grad" x1="16" y1="8" x2="52" y2="52" gradientUnits="userSpaceOnUse">
      <stop offset="0%" stop-color="#00D1FF" />
      <stop offset="60%" stop-color="#00B7FF" />
      <stop offset="100%" stop-color="#0090FF" />
    </linearGradient>
  </defs>
  <circle cx="32" cy="32" r="28" fill="#041a2f" />
  <path d="M31.8 10C27.4 17.2 19 23.4 19 32.6c0 9.6 7.5 17.4 15.5 17.4S50 42.2 50 32.6C50 23.2 38.7 14.2 31.8 10z" fill="url(#fav-grad)" />
  <path d="M18 37.5c4 6.5 11.5 10.8 19.6 10.8 7 0 13-2.8 17.2-7.9-2.8-4-7.8-6.1-13.7-6.1-8.4 0-15.7 1.5-23.1 3.2z" fill="#00C8FF" fill-opacity="0.6" />
  <path d="M26 43.5c-1.4 3.9-0.9 6.8-0.9 6.8s4 0.4 8.9-2.3c1.6-0.9 3.1-2.1 4.4-3.4-4.3 0.2-8.1-0.3-12.4-1.1z" fill="#B5F3FF" fill-opacity="0.75" />
</svg>
